<svg xmlns="http://www.w3.org/2000/svg" viewBox="-43.27 -8.00 271.27 256.00" fill="currentColor" role="img" aria-label="mVox">
  <title>mVox — MV ligature, written shoulders</title>
  <path d="M -2.12,12 Q 0,0 12,0 L 32,0 Q 64,0 73.79,34.52 L 87.73,83.65 Q 92.37,100 102.77,83.65 L 134.03,34.52 Q 156,0 188,0 L 208,0 Q 220,0 217.88,12 L 184.73,200 L 150.73,200 L 174.72,64 Q 186,0 147.28,57.24 L 91.67,139.48 Q 83.2,152 79.15,139.48 L 52.53,57.24 Q 34,0 22.72,64 L -1.27,200 L -35.27,200 Z"/>
  <path d="M 30.6,110 Q 24.6,110 26.38,115.35 L 64.43,230.19 Q 67.68,240 74.39,230.19 L 152.94,115.35 Q 156.6,110 150.6,110 L 136.6,110 Q 130.6,110 126.77,115.24 L 86.87,169.76 Q 77.91,182 73.27,169.76 L 52.59,115.24 Q 50.6,110 44.6,110 Z"/>
</svg>
